HIERARCHY
ROOT Hips
{
	OFFSET 0.000000 0.000000 0.000000 
	CHANNELS 6 Xposition Yposition Zposition Zrotation Yrotation Xrotation
	JOINT LeftUpLeg
	{
		OFFSET 1.363060 -1.794630 0.839290 
		CHANNELS 3 Zrotation Yrotation Xrotation
		JOINT LeftLeg
		{
			OFFSET 2.448110 -6.726130 0.000000 
			CHANNELS 3 Zrotation Yrotation Xrotation
			JOINT LeftFoot
			{
				OFFSET 2.562200 -7.039590 0.000000 
				CHANNELS 3 Zrotation Yrotation Xrotation
				JOINT LeftToeBase
				{
					OFFSET 0.157640 -0.433110 2.322550 
					CHANNELS 3 Zrotation Yrotation Xrotation
					End Site
					{
						OFFSET 0.000000 0.000000 0.000000 
					}
				}
			}
		}
	}
	JOINT RightUpLeg
	{
		OFFSET -1.305520 -1.794630 0.839290 
		CHANNELS 3 Zrotation Yrotation Xrotation
		JOINT RightLeg
		{
			OFFSET -2.542530 -6.985550 0.000000 
			CHANNELS 3 Zrotation Yrotation Xrotation
			JOINT RightFoot
			{
				OFFSET -2.568260 -7.056230 0.000000 
				CHANNELS 3 Zrotation Yrotation Xrotation
				JOINT RightToeBase
				{
					OFFSET -0.164730 -0.452590 2.363150 
					CHANNELS 3 Zrotation Yrotation Xrotation
					End Site
					{
						OFFSET 0.000000 0.000000 0.000000 
					}
				}
			}
		}
	}
	JOINT Spine
	{
		OFFSET 0.028270 2.035590 -0.193380 
		CHANNELS 3 Zrotation Yrotation Xrotation
		JOINT Spine1
		{
			OFFSET 0.056720 2.048850 -0.042750 
			CHANNELS 3 Zrotation Yrotation Xrotation
			JOINT Neck1
			{
				OFFSET -0.054170 1.746240 0.172020 
				CHANNELS 3 Zrotation Yrotation Xrotation
				JOINT Head
				{
					OFFSET 0.104070 1.761360 -0.123970 
					CHANNELS 3 Zrotation Yrotation Xrotation
					End Site
					{
						OFFSET 0.000000 0.000000 0.000000 
					}
				}
			}
			JOINT LeftArm
			{
				OFFSET 3.362410 1.200890 -0.311210 
				CHANNELS 3 Zrotation Yrotation Xrotation
				JOINT LeftForeArm
				{
					OFFSET 4.983000 -0.000000 -0.000000 
					CHANNELS 3 Zrotation Yrotation Xrotation
					JOINT LeftHand
					{
						OFFSET 3.483560 -0.000000 -0.000000 
						CHANNELS 3 Zrotation Yrotation Xrotation
						JOINT LeftHandIndex1
						{
							OFFSET 0.715260 -0.000000 -0.000000 
							CHANNELS 3 Zrotation Yrotation Xrotation
							End Site
							{
								OFFSET 0.000000 0.000000 0.000000 
							}
						}
					}
				}
			}
			JOINT RightArm
			{
				OFFSET -3.136600 1.374050 -0.404650 
				CHANNELS 3 Zrotation Yrotation Xrotation
				JOINT RightForeArm
				{
					OFFSET -5.241900 -0.000000 -0.000000 
					CHANNELS 3 Zrotation Yrotation Xrotation
					JOINT RightHand
					{
						OFFSET -3.444170 -0.000000 -0.000000 
						CHANNELS 3 Zrotation Yrotation Xrotation
						JOINT RightHandIndex1
						{
							OFFSET -0.622530 -0.000000 -0.000000 
							CHANNELS 3 Zrotation Yrotation Xrotation
							End Site
							{
								OFFSET 0.000000 0.000000 0.000000 
							}
						}
					}
				}
			}
		}
	}
}
MOTION
Frames: 16
Frame Time: 0.041667
-2.043679 17.941963 -5.895865 -1.571622 2.022332 6.939004 -19.259807 -1.705691 -14.812634 0.347656 7.472021 23.910257 -2.642446 13.142745 -10.757083 0.228300 -3.075400 -8.488800 15.579173 15.153740 -14.969286 -1.571721 -9.079445 28.308262 -0.381806 0.155025 -7.206506 -0.002300 0.308800 -0.848400 1.587746 -1.697449 -1.219669 4.155097 -0.379944 -1.024228 5.881419 -11.749835 13.533064 2.577700 -5.778100 11.021900 -77.375170 -2.419129 26.609722 9.969654 -19.801685 -1.914027 -0.181803 -1.627001 14.227502 -7.125000 0.000000 0.000000 75.694460 -3.337640 11.881644 -16.104110 23.045130 -4.031544 0.676759 -0.501436 20.569247 7.125000 0.000000 0.000000 
-2.044583 17.943571 -5.895463 -1.583123 2.033984 6.956090 -19.250712 -1.674954 -14.858251 0.346459 7.471669 23.901797 -2.653260 13.174186 -10.720097 0.237800 -3.138300 -8.664100 15.592409 15.121231 -14.970592 -1.564661 -9.067419 28.270762 -0.379702 0.170993 -7.116416 -0.000700 0.175500 -0.482100 1.597108 -1.691223 -1.187276 4.151056 -0.379777 -0.951043 5.860866 -11.783316 13.655405 2.547900 -5.784500 11.109000 -77.433628 -2.535027 26.416773 9.962920 -19.784187 -1.911621 -0.183259 -1.624300 14.313202 -7.125000 0.000000 0.000000 75.692756 -3.262642 11.970416 -16.148708 23.097151 -4.049724 0.679350 -0.492748 20.494990 7.125000 0.000000 0.000000 
-2.045789 17.943471 -5.894961 -1.594152 2.058402 6.936208 -19.234153 -1.655049 -14.833385 0.343407 7.463834 23.878891 -2.654354 13.169007 -10.681374 0.231800 -3.098900 -8.554300 15.611097 15.093722 -14.949386 -1.566439 -9.069870 28.279693 -0.387845 0.210698 -7.121291 -0.000200 0.096000 -0.263600 1.608477 -1.689261 -1.156084 4.149352 -0.382238 -0.896894 5.897827 -11.790437 13.797058 2.549800 -5.776300 11.207000 -77.465033 -2.596961 26.356311 9.948529 -19.758455 -1.906476 -0.187089 -1.620410 14.363337 -7.125000 0.000000 0.000000 75.677902 -3.179579 12.018593 -16.154300 23.102278 -4.051805 0.679931 -0.492737 20.481409 7.125000 0.000000 0.000000 
-2.046392 17.943069 -5.894961 -1.575083 2.092954 6.939615 -19.246995 -1.679930 -14.808252 0.334436 7.446222 23.827804 -2.654763 13.167397 -10.665495 0.219800 -3.018200 -8.329500 15.592494 15.041481 -14.975746 -1.571177 -9.079470 28.305429 -0.394193 0.244940 -7.108747 -0.000400 0.130700 -0.359100 1.629689 -1.697710 -1.134547 4.188314 -0.389597 -0.833259 5.917616 -11.802410 13.850451 2.556000 -5.779100 11.250300 -77.522265 -2.637393 26.346573 9.950793 -19.759426 -1.905002 -0.193207 -1.621523 14.403909 -7.125000 0.000000 0.000000 75.624134 -3.129025 12.040903 -16.164016 23.116588 -4.057176 0.674624 -0.496436 20.479625 7.125000 0.000000 0.000000 
-2.047699 17.942365 -5.896267 -1.500082 2.125874 6.939569 -19.319737 -1.721270 -14.766303 0.324114 7.424078 23.768085 -2.657846 13.179089 -10.651553 0.215900 -2.991500 -8.255000 15.517377 14.992018 -15.013861 -1.578883 -9.096608 28.349089 -0.395025 0.243235 -7.114732 -0.000600 0.158200 -0.434700 1.615000 -1.678997 -1.126439 4.217222 -0.380939 -0.799792 5.873998 -11.849732 13.735075 2.533900 -5.806700 11.181600 -77.511134 -2.627128 26.358084 9.991080 -19.824479 -1.922228 -0.184586 -1.622350 14.391897 -7.125000 0.000000 0.000000 75.615643 -3.115347 12.019333 -16.152594 23.101549 -4.051919 0.675696 -0.496258 20.507484 7.125000 0.000000 0.000000 
-2.049809 17.943069 -5.896167 -1.327451 2.120421 6.992254 -19.514865 -1.667133 -14.792074 0.314953 7.400505 23.707322 -2.652442 13.153240 -10.581023 0.230700 -3.091300 -8.533100 15.315407 14.969146 -15.114167 -1.586937 -9.118054 28.394958 -0.400908 0.275023 -7.079028 -0.000600 0.158200 -0.434800 1.576691 -1.668639 -1.164893 4.270107 -0.373016 -0.809531 5.794392 -11.875613 13.604936 2.512800 -5.834700 11.086600 -77.472413 -2.541885 26.420718 10.018707 -19.873087 -1.937287 -0.163750 -1.623911 14.216654 -7.125000 0.000000 0.000000 75.603332 -3.123242 12.002382 -16.103147 23.039801 -4.028916 0.674161 -0.493808 20.560489 7.125000 0.000000 0.000000 
-2.051618 17.943270 -5.897674 -1.249822 2.094037 7.015316 -19.598454 -1.641140 -14.796016 0.305705 7.379250 23.645418 -2.665731 13.189375 -10.500667 0.250500 -3.220500 -8.893300 15.217992 15.045549 -15.145268 -1.595173 -9.133235 28.437041 -0.408053 0.306800 -7.087393 -0.000500 0.148800 -0.408700 1.591061 -1.689308 -1.196640 4.354194 -0.381555 -0.827868 5.817058 -11.805628 13.471396 2.556000 -5.815600 10.999000 -77.532696 -2.467885 26.288767 10.026079 -19.884326 -1.941150 -0.150038 -1.627660 14.175207 -7.125000 0.000000 0.000000 75.542292 -3.142301 12.140513 -16.092412 23.026976 -4.023212 0.678580 -0.488605 20.467707 7.125000 0.000000 0.000000 
-2.052724 17.942968 -5.899584 -1.237172 2.073022 7.008422 -19.612964 -1.582316 -14.791222 0.300275 7.365098 23.605160 -2.653234 13.126993 -10.422942 0.251400 -3.226400 -8.909700 15.196688 15.097156 -15.145780 -1.602679 -9.144834 28.474109 -0.418889 0.343756 -7.149412 -0.000400 0.128600 -0.353400 1.603886 -1.679347 -1.221675 4.391810 -0.374796 -0.874904 5.903022 -11.769722 13.394813 2.610000 -5.800900 10.950400 -77.576691 -2.364593 26.229134 10.059437 -19.937945 -1.952379 -0.140312 -1.635176 14.239504 -7.125000 0.000000 0.000000 75.508641 -3.146801 12.209537 -16.080777 23.012221 -4.017892 0.682400 -0.488755 20.354229 7.125000 0.000000 0.000000 
-2.052724 17.944174 -5.900287 -1.198537 2.077375 7.034739 -19.659143 -1.587074 -14.804567 0.298492 7.360758 23.594723 -2.642523 13.084541 -10.398479 0.256500 -3.258300 -8.998800 15.143989 15.068019 -15.198020 -1.605594 -9.152404 28.490632 -0.428506 0.389629 -7.150254 -0.001000 0.199400 -0.548000 1.598079 -1.672163 -1.211776 4.391158 -0.372138 -0.844229 5.875309 -11.769728 13.448277 2.591400 -5.798600 10.983100 -77.609931 -2.420920 26.120197 10.048466 -19.916156 -1.947078 -0.138364 -1.636836 14.354103 -7.125000 0.000000 0.000000 75.501320 -3.022417 12.200133 -16.052838 22.972402 -4.004760 0.685632 -0.490953 20.399756 7.125000 0.000000 0.000000 
-2.054231 17.943672 -5.903503 -1.185292 2.097994 7.054931 -19.669341 -1.621683 -14.829458 0.297858 7.361917 23.593247 -2.658599 13.141441 -10.381152 0.257900 -3.267600 -9.024700 15.129545 15.087437 -15.231594 -1.607714 -9.156265 28.501401 -0.425451 0.375659 -7.143964 -0.000400 0.135200 -0.371600 1.590708 -1.657925 -1.192752 4.379199 -0.366966 -0.812017 5.891186 -11.811457 13.499062 2.583500 -5.810600 11.029700 -77.573330 -2.480555 26.259640 10.062009 -19.937124 -1.950017 -0.136734 -1.642372 14.237560 -7.125000 0.000000 0.000000 75.511931 -2.938698 12.223650 -16.061284 22.978288 -4.007673 0.693375 -0.488861 20.395054 7.125000 0.000000 0.000000 
-2.056543 17.944275 -5.908629 -1.153056 2.112553 7.046935 -19.692239 -1.618179 -14.847191 0.297894 7.362122 23.591971 -2.655303 13.122237 -10.339942 0.252500 -3.233500 -8.929500 15.113465 15.123016 -15.231683 -1.609713 -9.159875 28.512687 -0.407781 0.278239 -7.172284 -0.000700 0.171800 -0.472000 1.574945 -1.637289 -1.186342 4.375101 -0.357295 -0.835660 5.980747 -11.861078 13.511466 2.605500 -5.821300 11.057700 -77.532446 -2.511421 26.309339 10.054179 -19.924621 -1.946438 -0.133713 -1.645195 14.223034 -7.125000 0.000000 0.000000 75.545073 -2.946579 12.298923 -16.106346 23.030233 -4.026463 0.706465 -0.480387 20.333195 7.125000 0.000000 0.000000 
-2.058050 17.943973 -5.910940 -1.154646 2.105958 7.044863 -19.682919 -1.615032 -14.863515 0.298611 7.364428 23.594627 -2.666039 13.157035 -10.317673 0.252800 -3.235100 -8.934000 15.122865 15.128060 -15.236753 -1.610729 -9.161504 28.518777 -0.402341 0.240687 -7.207907 -0.001500 0.247600 -0.680400 1.552711 -1.624530 -1.178721 4.316937 -0.352059 -0.847795 6.073338 -11.906889 13.538389 2.623100 -5.826200 11.100700 -77.513811 -2.535869 26.218060 10.037294 -19.897134 -1.940262 -0.138051 -1.642765 14.305706 -7.125000 0.000000 0.000000 75.609276 -2.964688 12.365253 -16.166589 23.102867 -4.052742 0.709613 -0.477308 20.252728 7.125000 0.000000 0.000000 
-2.058251 17.942968 -5.910639 -1.144776 2.072755 7.053040 -19.700705 -1.631379 -14.858507 0.296872 7.362018 23.588598 -2.674328 13.198020 -10.363552 0.259100 -3.275200 -9.045800 15.098676 15.096783 -15.268865 -1.611250 -9.163123 28.520687 -0.415251 0.316940 -7.163915 -0.000600 0.158900 -0.436500 1.532549 -1.614702 -1.170572 4.267014 -0.348879 -0.829705 6.159425 -11.929047 13.509622 2.652200 -5.827200 11.105800 -77.489452 -2.502062 26.155846 10.041029 -19.906294 -1.945323 -0.139589 -1.635730 14.335548 -7.125000 0.000000 0.000000 75.650929 -2.936150 12.424383 -16.195790 23.138289 -4.066229 0.705057 -0.482952 20.197125 7.125000 0.000000 0.000000 
-2.057950 17.943672 -5.910036 -1.136534 2.060694 7.091184 -19.716568 -1.660718 -14.866772 0.293016 7.357080 23.575547 -2.670668 13.198326 -10.429359 0.259400 -3.276600 -9.049900 15.074590 15.036745 -15.334382 -1.611468 -9.165208 28.521617 -0.432809 0.421444 -7.103687 -0.000200 0.094600 -0.260000 1.506840 -1.610213 -1.163080 4.209011 -0.349229 -0.774413 6.234040 -11.952718 13.465195 2.680200 -5.832300 11.088100 -77.445500 -2.500846 26.119785 10.023983 -19.881134 -1.939429 -0.141379 -1.634223 14.393641 -7.125000 0.000000 0.000000 75.729364 -2.872534 12.377549 -16.189098 23.126720 -4.062835 0.695724 -0.489589 20.222297 7.125000 0.000000 0.000000 
-2.058553 17.944878 -5.910036 -1.145203 2.091142 7.127132 -19.704157 -1.656290 -14.888167 0.288833 7.349423 23.551233 -2.659276 13.147389 -10.392607 0.243700 -3.176900 -8.771500 15.079456 15.028433 -15.372223 -1.613388 -9.169557 28.532359 -0.431229 0.417746 -7.087867 -0.000200 0.100400 -0.275800 1.509122 -1.626111 -1.144965 4.200182 -0.358754 -0.690536 6.131769 -11.953653 13.473712 2.633700 -5.838500 11.081700 -77.434149 -2.546988 26.091928 10.007847 -19.854644 -1.932567 -0.142589 -1.634870 14.439800 -7.125000 0.000000 0.000000 75.775179 -2.797140 12.376832 -16.205098 23.141329 -4.068481 0.696733 -0.486367 20.305062 7.125000 0.000000 0.000000 
-2.058854 17.945280 -5.910840 -1.083758 2.125734 7.150967 -19.774872 -1.628663 -14.914951 0.287481 7.344881 23.539461 -2.653253 13.117959 -10.341703 0.246600 -3.195200 -8.822700 15.010731 14.986196 -15.403125 -1.613644 -9.173969 28.537131 -0.432896 0.413755 -7.116397 -0.000600 0.162300 -0.445900 1.489746 -1.632735 -1.140981 4.193263 -0.361820 -0.670810 6.034438 -11.978776 13.517106 2.579100 -5.851000 11.105700 -77.415028 -2.608924 26.115497 9.974109 -19.798916 -1.918846 -0.140916 -1.636463 14.452908 -7.125000 0.000000 0.000000 75.820423 -2.750037 12.373963 -16.238871 23.176060 -4.080966 0.706474 -0.473762 20.309215 7.125000 0.000000 0.000000 
